<?xml version="1.0" encoding="UTF-8"?>
<svg xmlns="http://www.w3.org/2000/svg" viewBox="0 0 64 64" fill="none" role="img" aria-label="GTLNAV">
  <title>GTLNAV</title>
  <defs>
    <linearGradient id="gtlnavLeafFill" x1="0" y1="0" x2="1" y2="1">
      <stop offset="0%" stop-color="#6fe89a" stop-opacity="0.95" />
      <stop offset="100%" stop-color="#6fe89a" stop-opacity="0.55" />
    </linearGradient>
  </defs>
  <path
    d="M32 4c-3 7-15 12-19 22-5 12 4 26 19 32 15-6 24-20 19-32C47 16 35 11 32 4Z"
    fill="url(#gtlnavLeafFill)"
    stroke="#6fe89a"
    stroke-opacity="0.7"
    stroke-width="1.2"
  />
  <path
    d="M32 8v50"
    stroke="#6fe89a"
    stroke-opacity="0.55"
    stroke-width="1.2"
    stroke-linecap="round"
  />
  <path
    d="M32 18c-4 2-9 4-12 8M32 28c-5 2-10 4-13 9M32 38c-5 1-9 3-12 7M32 18c4 2 9 4 12 8M32 28c5 2 10 4 13 9M32 38c5 1 9 3 12 7"
    stroke="#6fe89a"
    stroke-opacity="0.45"
    stroke-width="1"
    stroke-linecap="round"
  />
</svg>
